<?xml version="1.0" encoding="UTF-8"?>
<svg width="100" height="100" version="1.1" viewBox="0 0 100 100" xmlns="http://www.w3.org/2000/svg" xmlns:xlink="http://www.w3.org/1999/xlink">
 <defs>
  <linearGradient id="b" x1="34.163" x2="19.534" y1="25.098" y2="9.7388" gradientTransform="matrix(1.1493 0 0 .99541 -7.463 -.77041)" gradientUnits="userSpaceOnUse" xlink:href="#a"/>
 </defs>
 <linearGradient id="a" x1="34.163" x2="19.534" y1="25.098" y2="9.7388" gradientTransform="matrix(1.1493 0 0 .99541 -7.463 -.77041)" gradientUnits="userSpaceOnUse">
  <stop stop-color="#0046b1" offset="0"/>
  <stop stop-color="#c0dfff" offset="1"/>
 </linearGradient>
 <g transform="matrix(.8733 0 0 .87411 -3.9909 -.10087)" stroke-width="1.134">
  <g stroke-width="1.286">
   <path d="m8.2087 3.7542h58.239l25.343 23.528-4.6e-5 68.964h-83.583z" fill="#fff" fill-rule="evenodd"/>
   <g fill="none">
    <path d="m8.2087 3.7542h58.239c1.8257 9.739 3.0739 19.197-2.3223 25.417 11.222 0.65537 16.444-0.60082 27.666-1.8892l-25.343-23.528 25.343 23.528-4.6e-5 68.964h-83.583z" stroke="url(#b)" stroke-linecap="round" stroke-linejoin="round" stroke-width="7.2776"/>
    <g stroke="#87a1c3">
     <g stroke-width="3.4021">
      <path d="m20 86h60"/>
      <path d="m20 69.75h60"/>
      <path d="m20 53.5h60"/>
      <path d="m20 37.25h60"/>
     </g>
     <path d="m20 21h40" stroke-width="2.7778"/>
    </g>
   </g>
   <path d="m8.2087 3.7542h58.239l25.343 23.528-4.6e-5 68.964h-83.583z" fill="#fff" fill-rule="evenodd"/>
   <g fill="none">
    <path d="m8.2087 3.7542h58.239c1.8257 9.739 3.0739 19.197-2.3223 25.417 11.222 0.65537 16.444-0.60082 27.666-1.8892l-25.343-23.528 25.343 23.528-4.6e-5 68.964h-83.583z" stroke="url(#b)" stroke-linecap="round" stroke-linejoin="round" stroke-width="7.2776"/>
    <g stroke="#87a1c3">
     <g stroke-width="3.4021">
      <path d="m20 86h60"/>
      <path d="m20 69.75h60"/>
      <path d="m20 53.5h60"/>
      <path d="m20 37.25h60"/>
     </g>
     <path d="m20 21h40" stroke-width="2.7778"/>
    </g>
   </g>
  </g>
 </g>
 <g transform="matrix(.8733 0 0 .87411 16.009 12.599)" stroke-width="1.134">
  <g stroke-width="1.286">
   <path d="m8.2087 3.7542h58.239l25.343 23.528-4.6e-5 68.964h-83.583z" fill="#fff" fill-rule="evenodd"/>
   <g fill="none">
    <path d="m8.2087 3.7542h58.239c1.8257 9.739 3.0739 19.197-2.3223 25.417 11.222 0.65537 16.444-0.60082 27.666-1.8892l-25.343-23.528 25.343 23.528-4.6e-5 68.964h-83.583z" stroke="url(#b)" stroke-linecap="round" stroke-linejoin="round" stroke-width="7.2776"/>
    <g stroke="#87a1c3">
     <g stroke-width="3.4021">
      <path d="m20 86h60"/>
      <path d="m20 69.75h60"/>
      <path d="m20 53.5h60"/>
      <path d="m20 37.25h60"/>
     </g>
     <path d="m20 21h40" stroke-width="2.7778"/>
    </g>
   </g>
   <path d="m8.2087 3.7542h58.239l25.343 23.528-4.6e-5 68.964h-83.583z" fill="#fff" fill-rule="evenodd"/>
   <g fill="none">
    <path d="m8.2087 3.7542h58.239c1.8257 9.739 3.0739 19.197-2.3223 25.417 11.222 0.65537 16.444-0.60082 27.666-1.8892l-25.343-23.528 25.343 23.528-4.6e-5 68.964h-83.583z" stroke="url(#b)" stroke-linecap="round" stroke-linejoin="round" stroke-width="7.2776"/>
    <g stroke="#87a1c3">
     <g stroke-width="3.4021">
      <path d="m20 86h60"/>
      <path d="m20 69.75h60"/>
      <path d="m20 53.5h60"/>
      <path d="m20 37.25h60"/>
     </g>
     <path d="m20 21h40" stroke-width="2.7778"/>
    </g>
   </g>
  </g>
 </g>
</svg>
