<?xml version="1.0" encoding="UTF-8"?>
<svg width="100" height="100" version="1.1" viewBox="0 0 100 100" xmlns="http://www.w3.org/2000/svg" xmlns:xlink="http://www.w3.org/1999/xlink">
 <defs>
  <linearGradient id="a" x1="63.954" x2="82.67" y1="30.758" y2="60.321" gradientTransform="matrix(-1 0 0 1 101.69 1.1869)" gradientUnits="userSpaceOnUse">
   <stop stop-color="#7a7aff" offset="0"/>
   <stop stop-color="#000080" offset="1"/>
  </linearGradient>
 </defs>
 <path d="m66.89 24.502c6.5781 5.0874 15.675 17.462 15.675 17.462 3.1763-1.5252 8.7296-13.295 8.7296-13.295v34.127l-31.25 0.09961s9.0544-5.5962 11.986-9.2517c0 0-10.73-18.191-25.776-21.105-23.153-4.4837-18.849 20.972-16.665 30.356 2.1631 9.2936 14.17 24.688 14.17 24.688s-19.282-6.9788-30.639-24.786c-5.9636-9.3506-7.4521-32.842 5.6402-43.006 13.778-10.696 28.744-10.283 48.13 4.7105z" fill="url(#a)" stroke="#01005b" stroke-linecap="round" stroke-linejoin="round" stroke-width="8" style="paint-order:stroke markers fill"/>
</svg>
