<?xml version="1.0" encoding="UTF-8"?>
<svg width="100" height="100" version="1.1" viewBox="0 0 100 100" xmlns="http://www.w3.org/2000/svg">
 <defs>
  <marker id="a" overflow="visible" orient="auto">
   <path transform="scale(.4)" d="m5.77 0-8.65 5v-10l8.65 5z" fill-rule="evenodd" stroke="#000" stroke-width="1pt"/>
  </marker>
 </defs>
 <path d="m2.2915 92.408h89.417v-68.912h-31.107l-10.602-15.903h-37.107l-10.602 15.903z" fill="#ffdd03" fill-rule="evenodd" stroke="#bf7c00" stroke-linejoin="round" stroke-width="4.5237"/>
 <path d="m5.4415 31.905h40.713l11.309-7.9165-9.0474-13.571h-33.928l-9.0474 13.571z" fill="#fdffcc" stroke-width=".95826"/>
 <g transform="translate(-.5709 .51033)">
  <path d="m6.0124 31.395h40.713l11.309-7.9165-9.0474-13.571h-33.928l-9.0474 13.571z" fill="#fdffcc" stroke-width=".95826"/>
  <path d="m2.8624 91.897h89.474l5.9426-56.693h-84.703z" fill="#fff803" fill-rule="evenodd" stroke="#bf7c00" stroke-linejoin="round" stroke-width="4.5237"/>
 </g>
 <path d="m57.986 9.0214s3.9057-6.3186 14.184-5.3936c9.2468 0.83218 16.223 13.146 16.223 13.146" fill="none" marker-end="url(#a)" stroke="#000" stroke-linecap="round" stroke-linejoin="round" stroke-width="5.2"/>
</svg>
