<?xml version="1.0" encoding="UTF-8"?>
<svg width="100" height="100" version="1.1" viewBox="0 0 100 100" xmlns="http://www.w3.org/2000/svg">
 <g fill="#006400" fill-rule="evenodd">
  <path d="m25 10c-8.9563 1.6696-15 6.7795-15 15v15c-0.3286 3.6056-5.0359 6.8807-7.7542 10 2.7183 3.1193 7.4256 6.3944 7.7542 10v15c0 8.2205 6.0437 13.33 15 15h15v-5c-22.234-3.1605-16.61-6.664-16.61-18.388 0-7.6372-10.038-16.612-10.038-16.612s10.038-10.246 10.038-17.884c0-11.724-5.6235-13.956 16.61-17.116v-5z" style="paint-order:fill markers stroke"/>
  <path d="m75 10c8.9563 1.6696 15 6.7795 15 15v15c0.3286 3.6056 5.0359 6.8807 7.7542 10-2.7183 3.1193-7.4256 6.3944-7.7542 10v15c0 8.2205-6.0437 13.33-15 15h-15v-5c22.234-3.1605 16.61-6.664 16.61-18.388 0-7.6372 10.038-16.612 10.038-16.612s-10.038-10.246-10.038-17.884c0-11.724 5.6235-13.956-16.61-17.116v-5z" style="paint-order:fill markers stroke"/>
 </g>
</svg>
