<?xml version="1.0" encoding="UTF-8"?>
<svg width="100" height="100" version="1.1" viewBox="0 0 100 100" xmlns="http://www.w3.org/2000/svg">
 <filter id="b" color-interpolation-filters="sRGB">
  <feColorMatrix values="0.4 0.4 0.4 0 0 0.4 0.4 0.4 0 0 0.4 0.4 0.4 0 0 0 0 0 1 0"/>
 </filter>
 <filter id="a" x="-.085854" y="-.037166" width="1.1828" height="1.0743" color-interpolation-filters="sRGB">
  <feColorMatrix values="1 0 0 0.25 -0 0 1 0 0.25 -0 0 0 1 0.25 -0 0 0 0 1 0"/>
 </filter>
 <g transform="matrix(1.2223 0 0 1.2223 -8.656 -18.56)">
  <g transform="matrix(1.0056 0 0 .99251 9.2886 -3.5997)" filter="url(#a)">
   <path d="m23.813 96.825v-21.167h-21.167v-21.167h21.167v-21.167h21.167v21.167h21.167v21.167h-21.167v21.167z" fill="#27c204" stroke="#005a1d" stroke-width="3.9688"/>
   <g fill="none" stroke="#fff" stroke-linecap="round">
    <path d="m28.019 75.658v16.968" opacity=".7" stroke-width="4.1031"/>
    <path d="m6.8528 58.489v13.313" opacity=".7" stroke-width="3.6345"/>
    <path d="m28.019 37.426v16.968" opacity=".7" stroke-width="4.1031"/>
   </g>
  </g>
  <path transform="matrix(1.0056 0 0 .99251 9.2886 -3.5997)" d="m23.813 96.825v-21.167h-21.167v-21.167h21.167v-21.167h21.167v21.167h21.167v21.167h-21.167v21.167z" fill="#6c6c6c" filter="url(#a)" stroke="#2e2e2e" stroke-width="3.9688"/>
  <g transform="matrix(1.0056 0 0 .99251 9.2886 -3.5997)" fill="none" filter="url(#a)" stroke="#fff" stroke-linecap="round">
   <path d="m28.019 75.658v16.968" opacity=".7" stroke-width="4.1031"/>
   <path d="m6.8528 58.489v13.313" opacity=".7" stroke-width="3.6345"/>
   <path d="m28.019 37.426v16.968" opacity=".7" stroke-width="4.1031"/>
  </g>
 </g>
</svg>
