<?xml version="1.0" standalone="no"?>
<!DOCTYPE svg PUBLIC "-//W3C//DTD SVG 20001102//EN" "http://www.w3.org/TR/2000/CR-SVG-20001102/DTD/svg-20001102.dtd">
<svg xmlns="http://www.w3.org/2000/svg" width="776" x="0" y="0" height="370" id="/home/stefan/ETH/Masterarbeit/capture_replay/report/illustrations/example_class_diagram" >
 <rect width="776" x="0" y="154" height="370" transform="translate(0,-154)" style="stroke:rgb(0,0,0);stroke-width:0;fill:rgb(255,255,255);" />
 <line transform="translate(0,-154)" style="stroke:rgb(0,0,0);stroke-width:0.9;fill:none;" y1="194" y2="194" x1="347" x2="208" />
 <line transform="translate(0,-154)" style="stroke:rgb(0,0,0);stroke-width:0.9;fill:none;" y1="235" y2="286" x1="561" x2="561" />
 <line transform="translate(0,-154)" style="stroke:rgb(0,0,0);stroke-width:0.9;fill:none;" y1="349" y2="443" x1="561" x2="561" />
 <rect width="429" x="347" y="154" height="81" transform="translate(0,-154)" style="stroke:rgb(0,0,0);stroke-width:0.9;fill:rgb(255,255,192);" />
 <text x="561" y="169" transform="translate(0,-154)" style="fill:rgb(0,0,0);stroke-width:0;font-size:10;font-style:normal;font-weight:700;font-family:Sans Serif;" text-anchor="middle" >BANK</text>
 <line transform="translate(0,-154)" style="stroke:rgb(0,0,0);stroke-width:0.9;fill:rgb(255,255,192);" y1="172" y2="172" x1="347" x2="775" />
 <line transform="translate(0,-154)" style="stroke:rgb(0,0,0);stroke-width:0.9;fill:rgb(255,255,192);" y1="181" y2="181" x1="347" x2="775" />
 <text x="352" y="196" transform="translate(0,-154)" style="fill:rgb(0,0,0);stroke-width:0;font-size:10;font-style:normal;font-weight:400;font-family:Sans Serif;" >+ deposit(account : BANK_ACCOUNT, amount : FLOAT)</text>
 <text x="352" y="214" transform="translate(0,-154)" style="fill:rgb(0,0,0);stroke-width:0;font-size:10;font-style:normal;font-weight:400;font-family:Sans Serif;" >+ withdraw(account : BANK_ACCOUNT, amount : FLOAT)</text>
 <text x="352" y="232" transform="translate(0,-154)" style="fill:rgb(0,0,0);stroke-width:0;font-size:10;font-style:normal;font-weight:400;font-family:Sans Serif;" >+ account_for_name(account_name : STRING) : BANK_ACCOUNT</text>
 <rect width="208" x="0" y="163" height="63" transform="translate(0,-154)" style="stroke:rgb(0,0,0);stroke-width:0.9;fill:rgb(255,255,192);" />
 <text x="104" y="178" transform="translate(0,-154)" style="fill:rgb(0,0,0);stroke-width:0;font-size:10;font-style:normal;font-weight:700;font-family:Sans Serif;" text-anchor="middle" >BANK_ACCOUNT</text>
 <line transform="translate(0,-154)" style="stroke:rgb(0,0,0);stroke-width:0.9;fill:rgb(255,255,192);" y1="181" y2="181" x1="0" x2="207" />
 <line transform="translate(0,-154)" style="stroke:rgb(0,0,0);stroke-width:0.9;fill:rgb(255,255,192);" y1="190" y2="190" x1="0" x2="207" />
 <text x="5" y="205" transform="translate(0,-154)" style="fill:rgb(0,0,0);stroke-width:0;font-size:10;font-style:normal;font-weight:400;font-family:Sans Serif;" >+ deposit(amount : FLOAT)</text>
 <text x="5" y="223" transform="translate(0,-154)" style="fill:rgb(0,0,0);stroke-width:0;font-size:10;font-style:normal;font-weight:400;font-family:Sans Serif;" >+ withdraw(amount : INTEGER)</text>
 <rect width="356" x="383" y="286" height="63" transform="translate(0,-154)" style="stroke:rgb(0,0,0);stroke-width:0.9;fill:rgb(255,255,192);" />
 <text x="561" y="301" transform="translate(0,-154)" style="fill:rgb(0,0,0);stroke-width:0;font-size:10;font-style:normal;font-weight:700;font-family:Sans Serif;" text-anchor="middle" >ATM</text>
 <line transform="translate(0,-154)" style="stroke:rgb(0,0,0);stroke-width:0.9;fill:rgb(255,255,192);" y1="304" y2="304" x1="383" x2="738" />
 <line transform="translate(0,-154)" style="stroke:rgb(0,0,0);stroke-width:0.9;fill:rgb(255,255,192);" y1="313" y2="313" x1="383" x2="738" />
 <text x="388" y="328" transform="translate(0,-154)" style="fill:rgb(0,0,0);stroke-width:0;font-size:10;font-style:normal;font-weight:400;font-family:Sans Serif;" >+ deposit(account_name : STRING, amount : FLOAT)</text>
 <text x="388" y="346" transform="translate(0,-154)" style="fill:rgb(0,0,0);stroke-width:0;font-size:10;font-style:normal;font-weight:400;font-family:Sans Serif;" >+ withdraw(account_name : STRING, amount : FLOAT)</text>
 <text x="329" y="180" transform="translate(0,-154)" style="fill:rgb(50,50,50);stroke-width:0;font-size:10;font-style:normal;font-weight:400;font-family:Sans Serif;" text-anchor="middle" >1</text>
 <text x="230" y="182" transform="translate(0,-154)" style="fill:rgb(50,50,50);stroke-width:0;font-size:10;font-style:normal;font-weight:400;font-family:Sans Serif;" text-anchor="middle" >n</text>
 <text x="579" y="253" transform="translate(0,-154)" style="fill:rgb(50,50,50);stroke-width:0;font-size:10;font-style:normal;font-weight:400;font-family:Sans Serif;" text-anchor="middle" >1</text>
 <text x="579" y="274" transform="translate(0,-154)" style="fill:rgb(50,50,50);stroke-width:0;font-size:10;font-style:normal;font-weight:400;font-family:Sans Serif;" text-anchor="middle" >n</text>
 <text x="592" y="373" transform="translate(0,-154)" style="fill:rgb(50,50,50);stroke-width:0;font-size:10;font-style:normal;font-weight:400;font-family:Sans Serif;" text-anchor="middle" >1</text>
 <text x="592" y="428" transform="translate(0,-154)" style="fill:rgb(50,50,50);stroke-width:0;font-size:10;font-style:normal;font-weight:400;font-family:Sans Serif;" text-anchor="middle" >1</text>
 <rect width="130" x="496" y="443" height="81" transform="translate(0,-154)" style="stroke:rgb(0,0,0);stroke-width:0.9;fill:rgb(255,255,192);" />
 <text x="561" y="458" transform="translate(0,-154)" style="fill:rgb(0,0,0);stroke-width:0;font-size:10;font-style:normal;font-weight:700;font-family:Sans Serif;" text-anchor="middle" >ATM_UI</text>
 <line transform="translate(0,-154)" style="stroke:rgb(0,0,0);stroke-width:0.9;fill:rgb(255,255,192);" y1="461" y2="461" x1="496" x2="625" />
 <line transform="translate(0,-154)" style="stroke:rgb(0,0,0);stroke-width:0.9;fill:rgb(255,255,192);" y1="470" y2="470" x1="496" x2="625" />
 <text x="501" y="485" transform="translate(0,-154)" style="fill:rgb(0,0,0);stroke-width:0;font-size:10;font-style:normal;font-weight:400;font-family:Sans Serif;" >+ run()</text>
 <text x="501" y="503" transform="translate(0,-154)" style="fill:rgb(0,0,0);stroke-width:0;font-size:10;font-style:normal;font-weight:400;font-family:Sans Serif;" >- deposit()</text>
 <text x="501" y="521" transform="translate(0,-154)" style="fill:rgb(0,0,0);stroke-width:0;font-size:10;font-style:normal;font-weight:400;font-family:Sans Serif;" >- withdraw()</text>
 <line transform="translate(0,-154)" style="stroke:rgb(190,190,190);stroke-width:0.9;stroke-dasharray:3;fill:none;" y1="393" y2="393" x1="697" x2="697" />
 <line transform="translate(0,-154)" style="stroke:rgb(190,190,190);stroke-width:0.9;stroke-dasharray:3;fill:none;" y1="393" y2="393" x1="697" x2="697" />
 <line transform="translate(0,-154)" style="stroke:rgb(190,190,190);stroke-width:0.9;stroke-dasharray:3;fill:none;" y1="393" y2="393" x1="697" x2="697" />
 <line transform="translate(0,-154)" style="stroke:rgb(190,190,190);stroke-width:0.9;stroke-dasharray:3;fill:none;" y1="393" y2="393" x1="697" x2="697" />
</svg>
