<?xml version="1.0" encoding="UTF-8"?>
<svg width="100" height="100" version="1.1" viewBox="0 0 100 100" xmlns="http://www.w3.org/2000/svg">
 <path d="m49.997 5.6182c-1.0251 1.51e-5 -2.0244 0.088123-2.9941 0.24777a15.554 13.119 0 0 0-0.05413 0.00833c-2.0264 0.33989-3.9101 1.0108-5.5697 1.9447a15.554 13.119 0 0 0-0.03124 0.016662c-1.6875 0.95444-3.1426 2.1791-4.2746 3.6021a15.554 13.119 0 0 0-0.02499 0.03748c-0.55426 0.70163-1.0301 1.4503-1.4179 2.2383a15.554 13.119 0 0 0-0.0021 0.0021 15.554 13.119 0 0 0-0.0021 0.0063c-0.38393 0.78164-0.68101 1.5994-0.88074 2.4486a15.554 13.119 0 0 0-0.0042 0.02499c-0.19142 0.82212-0.29765 1.6708-0.29775 2.5402 0.0025 0.84462 0.10804 1.6709 0.29358 2.4757a15.554 13.119 0 0 0 0.03748 0.1395c0.18948 0.77622 0.46218 1.5278 0.80787 2.2508a15.554 13.119 0 0 0 0.08745 0.18115c0.36545 0.73246 0.80401 1.4324 1.3159 2.0925a15.554 13.119 0 0 0 0.07288 0.10202c0.53994 0.68276 1.1554 1.321 1.8364 1.9072a15.554 13.119 0 0 0 0.10202 0.08329c0.65779 0.55601 1.3778 1.0586 2.1488 1.5096a15.554 13.119 0 0 0 0.20821 0.12076c0.76123 0.42997 1.57 0.80612 2.4236 1.1202a15.554 13.119 0 0 0 0.17698 0.06663c0.89268 0.31728 1.8265 0.57424 2.8026 0.74957l-0.35396 9.5841h-9.1988v5.2491h9.0073l-1.1723 31.773c-6.5037-0.38039-11.565-1.5815-15.474-3.9041-2.4185-1.4367-6.8153-8.1231-1.4346-18.762l-11.466 3.4897c0 8.5035 12.199 26.186 28.013 29.042l-0.07704 2.078 5.3969 4.2975 0.0042-0.0042 0.0021 0.0042 5.3969-4.2975-0.07704-2.078c15.814-2.8559 28.013-20.538 28.013-29.042l-11.466-3.4897c5.3807 10.639 0.98395 17.325-1.4346 18.762-3.9097 2.3226-8.9707 3.5237-15.474 3.904l-1.1722-31.773h9.0073v-5.2491h-9.1989l-0.35396-9.5841c7.1665-1.2874 12.296-6.6188 12.314-12.799-7.68e-4 -7.2447-6.9641-13.117-15.554-13.117a15.554 13.119 0 0 0-0.0063 0zm0.0042 4.3933c0.0012 0.05878 0.0011 0.39156 0.0021 0.39144 6.2935 5e-6 10.742 3.8908 10.542 8.3327-2.3e-4 6.5624-7.9654 8.7752-10.511 8.543v-0.0021c-0.0098 0.0011-0.02335 0.0011-0.03331 0.0021-0.01055-0.0011-0.025-9.29e-4 -0.03539-0.0021v0.0021c-2.5453 0.23222-10.51-1.9806-10.511-8.543-0.19972-4.442 4.2484-8.3327 10.542-8.3327 1e-3 1.15e-4 3e-3 -0.33266 0.0042-0.39144z" stroke-width="0" style="paint-order:stroke fill markers"/>
</svg>
