<?xml version="1.0" encoding="UTF-8"?>
<svg width="100" height="100" version="1.1" viewBox="0 0 100 100" xmlns="http://www.w3.org/2000/svg" xmlns:xlink="http://www.w3.org/1999/xlink">
 <g transform="translate(1.8631 2.2838)" fill="#bebebe" stroke="#575757" stroke-width="5" aria-label="?">
  <path d="m57.085 63.65h-16.922v-4.2969c-0.07301-6.3058 4.1778-12.081 8.0625-14.829 3.8847-2.7476 9.1922-5.8587 8.9462-11.187s-5.3941-7.4612-9.3212-7.5248c-5.8807-0.04504-9.8682 4.6057-10.896 10.002l-14.102-7.0008c1.6401-8.1143 12.186-19.04 25.447-18.646 13.26 0.39424 24.607 8.2284 25.367 18.843 0.42677 5.9596-0.31595 11.322-6.1562 16.834l-4.955 4.6764c-2.125 1.9375-3.8292 3.9882-4.4855 5.1757-0.65625 1.1562-0.98438 2.4375-0.98438 3.8438zm-16.922 8.9375h16.922v12.688h-16.922z" fill="#bebebe" stroke="#575757" stroke-width="5"/>
 </g>
</svg>
