<?xml version="1.0" encoding="UTF-8"?>
<svg width="100" height="100" version="1.1" viewBox="0 0 100 100" xmlns="http://www.w3.org/2000/svg">
 <path d="m50 8.5a5 5 0 0 0-5 5v5.5312a25 25 0 0 0-20 24.469v20l-10 10v5h70v-5l-10-10v-20a25 25 0 0 0-20-24.494v-5.5059a5 5 0 0 0-5-5zm-10 73c0 5.5228 4.4772 10 10 10s10-4.4772 10-10z" fill="#eee" fill-rule="evenodd" stroke="#666" stroke-linecap="round" stroke-linejoin="round" stroke-width="3.0236" style="paint-order:fill markers stroke"/>
 <rect transform="rotate(30)" x="61.767" y="-23.561" width="15.774" height="88.413" fill="#999" fill-rule="evenodd" stroke="#f6f6f6" stroke-linecap="round" stroke-linejoin="round" stroke-width="2.5466" style="paint-order:fill markers stroke"/>
</svg>
