<?xml version="1.0" encoding="UTF-8"?>
<svg width="100" height="100" version="1.1" viewBox="0 0 100 100" xmlns="http://www.w3.org/2000/svg">
 <g fill-rule="evenodd">
  <path d="m50 10a5 5 0 0 0-5 5v5.5312a25 25 0 0 0-20 24.469v20l-10 10v5h70v-5l-10-10v-20a25 25 0 0 0-20-24.494v-5.5059a5 5 0 0 0-5-5zm-10 73c0 5.5228 4.4772 10 10 10s10-4.4772 10-10z" fill="#ffd800" stroke="#070707" stroke-linecap="round" stroke-linejoin="round" stroke-width="3" style="paint-order:fill markers stroke"/>
  <path d="m26.424 4.2992a47.557 47.557 0 0 0-23.981 41.259h15.852a31.704 31.704 0 0 1 15.995-27.494zm47.142 0.020641-7.8477 13.732a31.704 31.704 0 0 1 15.986 27.506h15.852a47.557 47.557 0 0 0-23.991-41.238z" fill="#ffd800" stroke="#151515" stroke-linecap="round" stroke-linejoin="round" stroke-width="3" style="paint-order:fill markers stroke"/>
 </g>
</svg>
