<svg height="100" viewBox="0 0 100 100" width="100" xmlns="http://www.w3.org/2000/svg" xmlns:xlink="http://www.w3.org/1999/xlink"><linearGradient id="a" gradientUnits="userSpaceOnUse" x1=".99986" x2="44.896" y1="50" y2="50"><stop offset="0" stop-color="#00f"/><stop offset="1" stop-color="#0000bc"/></linearGradient><linearGradient id="b" gradientUnits="userSpaceOnUse" x1="39.104" x2="99" y1="50" y2="50"><stop offset="0" stop-color="#0000af"/><stop offset="1" stop-color="#00f"/></linearGradient><linearGradient id="c" gradientUnits="userSpaceOnUse" x1=".99986" x2="44.896" xlink:href="#a" y1="50" y2="50"/><g stroke-linejoin="round"><g stroke="#0000c0" stroke-linecap="round" stroke-width="5.793"><path d="m3.8964 32.622h38.104v34.756h-38.104v-8.6892h38.104v-17.378h-38.104z" fill="url(#a)"/><path d="m42 20.658 54.103738 29.342-54.103738 29.342z" fill="url(#b)"/><path d="m3.8964 32.622h38.104v8.6888h-38.104z" fill="url(#c)" transform="matrix(0 1.2622 -.94185 0 58.521 21.172)"/></g><g stroke="#0000c0" stroke-linecap="round" stroke-width="5.793"><path d="m3.8964 32.622h38.104v34.756h-38.104v-8.6892h38.104v-17.378h-38.104z" fill="url(#a)"/><path d="m42 20.658 54.103738 29.342-54.103738 29.342z" fill="url(#b)"/><path d="m3.8964 32.622h38.104v8.6888h-38.104z" fill="url(#c)" transform="matrix(0 1.2622 -.94185 0 58.521 21.172)"/></g><path d="m36.950033 4.7223755v32.2265755h-32.2276585v26.102147h32.2276585v32.226526h26.102146v-32.226526h32.225446v-26.102147h-32.225446v-32.2265755z" fill="#fff200" fill-rule="evenodd" stroke="#000" stroke-width="9.444752" transform="scale(.5)"/></g></svg>