<svg height="100" viewBox="0 0 100 100" width="100" xmlns="http://www.w3.org/2000/svg" xmlns:xlink="http://www.w3.org/1999/xlink"><linearGradient id="a"><stop offset="0" stop-color="#c9c9c9"/><stop offset="1" stop-color="#e3f9fc"/></linearGradient><linearGradient id="b" gradientTransform="matrix(.84336 .40834 -.39923 .8626 28.261 -6.4404)" gradientUnits="userSpaceOnUse" x1="9.9407" x2="24.805" xlink:href="#a" y1="77.542" y2="48.729"/><linearGradient id="c" gradientTransform="matrix(.84336 .40834 -.39923 .8626 28.261 -18.44)" gradientUnits="userSpaceOnUse" x1="9.9407" x2="24.805" xlink:href="#a" y1="77.542" y2="48.729"/><linearGradient id="d" gradientTransform="matrix(.84336 .40834 -.39923 .8626 28.261 -32.44)" gradientUnits="userSpaceOnUse" x1="9.9407" x2="24.805" xlink:href="#a" y1="77.542" y2="48.729"/><g fill-rule="evenodd"><g stroke="#000" stroke-linecap="round" stroke-linejoin="round" stroke-width="3.7747"><path d="m31.729 40.794 63.967 30.972-27.425 26.348-63.967-30.972z" fill="url(#b)"/><path d="m31.729 28.794 63.967 30.972-27.425 26.348-63.967-30.972z" fill="url(#c)"/><path d="m31.729 14.794 63.967 30.972-27.425 26.348-63.967-30.972z" fill="url(#d)"/></g><g stroke="#000" stroke-linecap="round" stroke-linejoin="round" stroke-width="3.7747"><path d="m31.729 40.794 63.967 30.972-27.425 26.348-63.967-30.972z" fill="url(#b)"/><path d="m31.729 28.794 63.967 30.972-27.425 26.348-63.967-30.972z" fill="url(#c)"/><path d="m31.729 14.794 63.967 30.972-27.425 26.348-63.967-30.972z" fill="url(#d)"/></g><g transform="matrix(.97344465 0 0 .97344465 -20.088015 -17.845102)"><path d="m72.000001 46.850475 11.578164 22.845331 11.578163 22.845332-23.156328-.000001-23.156329-.000001 11.578164-22.84533z" fill="#fff500" stroke="#000" stroke-linecap="round" stroke-linejoin="round" stroke-width="3.105315"/><g fill="#020202"><path d="m68.9715 58.792999h6.057v20h-6.057z"/><path d="m68.9715 83.453827h6.057001v6h-6.057001z"/></g></g></g></svg>