<svg height="100" viewBox="0 0 100 100" width="100" xmlns="http://www.w3.org/2000/svg" xmlns:xlink="http://www.w3.org/1999/xlink"><linearGradient id="a"><stop offset="0" stop-color="#007f00"/><stop offset="1"/></linearGradient><linearGradient id="b" gradientTransform="matrix(1.0428 0 0 1.0265 18.404 -.39618)" gradientUnits="userSpaceOnUse" x1="35.713" x2="61.378" xlink:href="#a" y1="43.698" y2="58.483"/><linearGradient id="c" gradientUnits="userSpaceOnUse" x1="31.9996" x2="41.4526" xlink:href="#a" y1="25.935" y2="25.935"/><linearGradient id="d" gradientUnits="userSpaceOnUse" x1="19.8806" x2="41.4526" xlink:href="#a" y1="38.054" y2="38.054"/><linearGradient id="e" gradientUnits="userSpaceOnUse" x1="7.680599" x2="41.4526" xlink:href="#a" y1="50.254" y2="50.254"/><linearGradient id="f" gradientTransform="matrix(1 0 0 -1 7.6806 100.69)" gradientUnits="userSpaceOnUse" x1="12.2" x2="33.772" xlink:href="#a" y1="38.054" y2="38.054"/><linearGradient id="g" gradientTransform="matrix(1 0 0 -1 7.6806 100.69)" gradientUnits="userSpaceOnUse" x1="24.319" x2="33.772" xlink:href="#a" y1="25.935" y2="25.935"/><linearGradient id="h" gradientUnits="userSpaceOnUse" x1="80" x2="90" y1="70" y2="75"><stop offset="0" stop-color="#d8a42d"/><stop offset="1" stop-color="#8c6a1a"/></linearGradient><linearGradient id="i" gradientUnits="userSpaceOnUse" x1="70" x2="60" y1="70" y2="80"><stop offset="0" stop-color="#d8a42d"/><stop offset="1" stop-color="#755815"/></linearGradient><linearGradient id="j" gradientUnits="userSpaceOnUse" x1="75" x2="75" y1="55" y2="65"><stop offset="0" stop-color="#b68d30"/><stop offset="1" stop-color="#ffd982"/></linearGradient><g fill="none" transform="translate(-1.6112 -.93055)"><path d="m49.542 14.931h5.4828l36.517 35.949-36.621 36.051h-5.3793z" stroke="url(#b)" stroke-linecap="round" stroke-linejoin="round" stroke-width="8"/><g stroke-width="5"><path d="m41.453 25.935h-9.453" opacity=".75" stroke="url(#c)"/><path d="m41.453 38.054h-21.572" opacity=".75" stroke="url(#d)"/><path d="m41.453 50.254h-33.772" opacity=".75" stroke="url(#e)"/><path d="m41.453 74.754h-9.453" opacity=".75" stroke="url(#g)"/><path d="m41.453 62.635h-21.572" opacity=".75" stroke="url(#f)"/></g></g><g fill="none" transform="translate(-1.6112 -.93055)"><path d="m49.542 14.931h5.4828l36.517 35.949-36.621 36.051h-5.3793z" stroke="url(#b)" stroke-linecap="round" stroke-linejoin="round" stroke-width="8"/><g stroke-width="5"><path d="m41.453 25.935h-9.453" opacity=".75" stroke="url(#c)"/><path d="m41.453 38.054h-21.572" opacity=".75" stroke="url(#d)"/><path d="m41.453 50.254h-33.772" opacity=".75" stroke="url(#e)"/><path d="m41.453 74.754h-9.453" opacity=".75" stroke="url(#g)"/><path d="m41.453 62.635h-21.572" opacity=".75" stroke="url(#f)"/></g></g><g stroke="#000" stroke-linecap="round" stroke-linejoin="round" stroke-width="2" transform="matrix(1.1904792 0 0 1.1904792 -64.28594 -8.333505)"><path d="m75 90v-20l-15-10v20z" fill="url(#i)"/><path d="m75 70 15-10v20l-15 10z" fill="url(#h)"/><path d="m90 60-15-10-15 10 15 10z" fill="url(#j)"/></g></svg>